<svg width="20" height="20">
 <g className="layer">
  <title>Layer 1</title>
  <g fill="#fff" id="svg_1">
   <path d="m2.75,10.2c0,0.8 0.65,1.45 1.45,1.45s1.45,-0.65 1.45,-1.45s-0.65,-1.45 -1.45,-1.45s-1.45,0.65 -1.45,1.45z" fill="rgba(251, 251, 255, 0.6)" id="svg_2"/>
   <path d="m10,11.65c-0.8,0 -1.45,-0.65 -1.45,-1.45s0.65,-1.45 1.45,-1.45s1.45,0.65 1.45,1.45s-0.65,1.45 -1.45,1.45z" fill="rgba(251, 251, 255, 0.6)" id="svg_3"/>
   <path d="m15.8,11.65c-0.8,0 -1.45,-0.65 -1.45,-1.45s0.65,-1.45 1.45,-1.45s1.45,0.65 1.45,1.45s-0.65,1.45 -1.45,1.45z" fill="rgba(251, 251, 255, 0.6)" id="svg_4"/>
  </g>
 </g>
</svg>