
<svg width="18" height="18" >
 <g classMame="layer">
  <title>Layer 1</title>
  <g id="svg_1">
   <path d="m8.98,4.16c-3.57,0 -6.72,1.76 -8.52,4.5a0.43,0.54 0 0 0 0,0.68c1.81,2.74 4.95,4.51 8.52,4.51c3.57,0 6.72,-1.77 8.52,-4.51a0.43,0.54 0 0 0 0,-0.68c-1.81,-2.73 -4.95,-4.5 -8.52,-4.5zm0,1.08c3.18,0 5.95,1.53 7.6,3.77c-1.65,2.24 -4.42,3.77 -7.6,3.77c-3.18,0 -5.95,-1.53 -7.6,-3.77c1.65,-2.24 4.42,-3.77 7.6,-3.77zm0,0.81c-1.3,0 -2.37,1.33 -2.37,2.96c0,1.63 1.07,2.96 2.37,2.96c1.3,0 2.37,-1.33 2.37,-2.96c0,-1.63 -1.07,-2.96 -2.37,-2.96zm0,1.08c0.84,0 1.51,0.84 1.51,1.88c0,1.05 -0.67,1.88 -1.51,1.88c-0.84,0 -1.51,-0.84 -1.51,-1.88c0,-1.05 0.67,-1.88 1.51,-1.88z" display="inline" enable-background="accumulate" fill="#000000" id="svg_2"/>
  </g>
 </g>
</svg>