<svg width="30" height="30">
 <g class="layer">
  <title>Layer 1</title>
  <g id="svg_1">
   <!-- <rect fill="#aa69ff" height="30" id="svg_2" transform="matrix(1 0 0 1 0 0)" width="30"/> -->
   <rect fill="#10a37e" height="30" id="svg_2" transform="matrix(1 0 0 1 0 0)" width="30"/>
   <path d="m25.41,4.84l-19.83,0c-0.41,0 -0.75,0.33 -0.75,0.75l0,2.78c0,0.41 0.33,0.75 0.75,0.75c0.41,0 0.75,-0.33 0.75,-0.75l0,-2.04l8.42,0l0,18.34l-2.68,0c-0.41,0 -0.75,0.33 -0.75,0.75c0,0.41 0.34,0.75 0.75,0.75l6.85,0c0.41,0 0.75,-0.33 0.75,-0.75c0,-0.41 -0.34,-0.75 -0.75,-0.75l-2.68,0l0,-18.34l8.43,0l0,2.04c0,0.41 0.33,0.75 0.74,0.75c0.41,0 0.75,-0.33 0.75,-0.75l0,-2.78c0,-0.41 -0.33,-0.75 -0.75,-0.75z" fill="#fff" id="svg_3"/>
  </g>
 </g>
</svg>