<svg width="40" height="40">
 <g class="layer">
  <title>Layer 1</title>
  <g id="svg_13">
   <path d="m32.86,17.01c0.59,-1.07 0.91,-2.27 0.91,-3.5c0,-1.26 -0.34,-2.5 -0.97,-3.6c-1.9,-3.28 -5.99,-4.5 -9.34,-2.91c-0.3,-0.5 -0.67,-0.97 -1.09,-1.39c-1.36,-1.36 -3.17,-2.11 -5.1,-2.11c-3.78,0 -6.89,2.93 -7.19,6.65c-2.53,0.05 -4.86,1.42 -6.12,3.6c-1.9,3.28 -0.91,7.44 2.16,9.55c-0.59,1.07 -0.91,2.27 -0.91,3.5c0,1.26 0.34,2.5 0.97,3.6c1.34,2.32 3.77,3.6 6.26,3.6c1.04,0 2.09,-0.23 3.08,-0.7c0.3,0.5 0.67,0.97 1.08,1.38c1.36,1.36 3.17,2.11 5.1,2.11c3.78,0 6.89,-2.93 7.19,-6.65c2.53,-0.05 4.86,-1.42 6.12,-3.6c1.9,-3.28 0.91,-7.44 -2.16,-9.55l0,0l0,0l0,0.01l-0.01,0l0.01,0.01zm-1.02,-6.55c0.53,0.93 0.82,1.99 0.82,3.05c0,1.03 -0.26,2.02 -0.74,2.92l-7.7,-4.44c-0.17,-0.1 -0.38,-0.1 -0.56,0l-8.05,4.64l0.01,-3.84l7.88,-4.55c0.01,-0.01 0.02,-0.01 0.03,-0.01c2.91,-1.67 6.65,-0.67 8.33,2.24l0,0l0,-0.01l0.01,0l-0.01,-0.01zm-8.45,11.94l-3.9,2.25l-3.9,-2.26l0.01,-4.49l3.9,-2.25l3.9,2.26l-0.01,4.49l0,0zm-12.22,-11.7c0.01,-3.36 2.74,-6.09 6.11,-6.09c1.63,0 3.17,0.64 4.32,1.79c0.34,0.34 0.64,0.72 0.89,1.13l-7.71,4.45c-0.17,0.1 -0.28,0.28 -0.28,0.48l-0.02,9.3l-3.32,-1.92l0,-9.12l0,-0.01l0.01,-0.01zm-6.24,3.6c1.06,-1.84 3.02,-2.99 5.13,-3.04l0,8.89c0,0.2 0.1,0.38 0.28,0.48l8.04,4.65l-3.32,1.91l-7.85,-4.53c-0.01,-0.01 -0.03,-0.02 -0.04,-0.03c-2.91,-1.69 -3.91,-5.42 -2.23,-8.34l0,0l0,-0.01l0,0.01l-0.01,0.01zm2.22,15.54c-0.53,-0.93 -0.82,-1.99 -0.82,-3.05c0,-1.03 0.26,-2.02 0.74,-2.92l7.7,4.44c0.08,0.05 0.18,0.08 0.28,0.08c0.1,0 0.19,-0.02 0.28,-0.08l8.05,-4.64l-0.01,3.84l-7.88,4.55c-0.01,0.01 -0.02,0.01 -0.03,0.01c-2.91,1.67 -6.65,0.67 -8.33,-2.24l0,0l0.01,0.01l-0.01,0l0.01,0.01zm20.67,-0.25c-0.01,3.36 -2.74,6.09 -6.11,6.09c-1.63,0 -3.17,-0.64 -4.32,-1.79c-0.34,-0.34 -0.64,-0.72 -0.89,-1.13l7.71,-4.45c0.17,-0.1 0.28,-0.28 0.28,-0.48l0.01,-9.3l3.32,1.92l0,9.12l0,0l0,-0.01l0,0.01l-0.01,0.01zm6.24,-3.6c-1.06,1.84 -3.02,2.99 -5.13,3.04l0,-8.89c0,-0.2 -0.1,-0.38 -0.28,-0.48l-8.04,-4.65l3.32,-1.91l7.85,4.53c0.01,0.01 0.03,0.02 0.04,0.03c2.91,1.69 3.91,5.42 2.23,8.34l0,0l0,0l-0.01,0.01l0.01,-0.01l0.01,-0.01z" id="svg_14"/>
  </g>
 </g>
</svg>