<svg width="18" height="18">
 <g className="layer">
  <title>Layer 1</title>
  <path
    d="m2.43,2.25l0,14.01l4.54,0c0.29,0 0.53,0.24 0.53,0.53s-0.24,0.53 -0.53,0.53l-5.07,0c-0.29,0 -0.53,-0.24 -0.53,-0.53l0,-15.07c0,-0.29 0.24,-0.53 0.53,-0.53l5.07,0c0.29,0 0.53,0.24 0.53,0.53s-0.24,0.53 -0.53,0.53l-4.54,0zm13,6.63l-2.89,-2.92c-0.21,-0.21 -0.53,-0.21 -0.74,0c-0.21,0.21 -0.21,0.53 0,0.74l1.99,2.02l-8.09,0c-0.29,0 -0.53,0.24 -0.53,0.53s0.24,0.53 0.53,0.53l8.09,0l-1.99,2.02c-0.21,0.21 -0.21,0.56 0,0.74c0.11,0.11 0.24,0.16 0.37,0.16c0.13,0 0.26,-0.05 0.37,-0.16l2.89,-2.92c0.18,-0.21 0.18,-0.53 0,-0.74z"
    fill="rgba(251, 251, 255, 0.9)"
    id="svg_1"/>
 </g>
</svg>