<svg width="18" height="18" >
 <g className="layer">
  <title>Layer 1</title>
  <g id="svg_1">
   <path clip-rule="nonzero" d="m17.03,-1026.36l-4.05,3.16c-1.24,-0.49 -2.58,-0.77 -3.96,-0.77c-3.36,0 -6.53,1.57 -8.48,4.21a0.52,0.5 0 0 0 0,0.58c0.93,1.25 2.13,2.24 3.49,2.96l-3.67,2.86l0.65,0.78l16.67,-13l-0.65,-0.78zm-8.01,3.39c1.04,0 2.06,0.18 3.03,0.49l-1.39,1.08c-0.45,-0.35 -1.02,-0.57 -1.65,-0.57c-1.43,0 -2.6,1.13 -2.6,2.5c0,0.42 0.1,0.81 0.3,1.16l-1.81,1.41c-1.25,-0.6 -2.35,-1.49 -3.24,-2.58c1.77,-2.17 4.46,-3.49 7.35,-3.49zm5.77,0.68l-0.58,0.83c0.83,0.53 1.53,1.24 2.16,2.01c-1.77,2.17 -4.46,3.48 -7.34,3.48c-0.75,0 -1.48,-0.09 -2.19,-0.25l-0.25,0.97c0.79,0.18 1.6,0.28 2.44,0.28c3.36,0 6.53,-1.57 8.48,-4.21a0.52,0.5 0 0 0 0,-0.58c-0.74,-1.01 -1.67,-1.86 -2.71,-2.53zm-5.77,1.32c0.3,0 0.57,0.09 0.81,0.23l-2.28,1.77c-0.05,-0.16 -0.09,-0.32 -0.09,-0.5c0,-0.83 0.7,-1.5 1.56,-1.5z" display="inline" enable-background="accumulate" fill="#000000" fill-rule="nonzero" id="svg_2" stroke-dashoffset="0" stroke-linejoin="round" stroke-miterlimit="4" transform="translate(0 1028.36)"/>
  </g>
 </g>
</svg>