<svg width="18" height="18">
 <g class="layer">
  <title>Layer 1</title>
  <path d="m3.03,10.31l4.79,0c0.1,0 0.2,0.05 0.27,0.13c0.07,0.08 0.09,0.19 0.07,0.29l-1.66,7.73c0,0.01 0,0.03 0,0.05c0.01,0.01 0.02,0.02 0.04,0.03c0.01,0.01 0.03,0.01 0.05,0.01c0.02,0 0.03,-0.01 0.04,-0.03l7.64,-10.38c0.08,-0.11 0.09,-0.25 0.03,-0.37c-0.06,-0.12 -0.18,-0.2 -0.32,-0.2l-4.79,0c-0.1,0 -0.2,-0.05 -0.27,-0.13s-0.09,-0.19 -0.07,-0.29l1.66,-7.73c0,-0.01 0,-0.03 0,-0.05c-0.01,-0.01 -0.02,-0.03 -0.04,-0.03c-0.01,0 -0.02,-0.01 -0.03,-0.01c-0.02,0 -0.04,0.01 -0.05,0.03l-7.64,10.38c-0.08,0.11 -0.09,0.25 -0.03,0.37c0.06,0.12 0.18,0.2 0.32,0.2z"
  fill="rgba(142, 142, 160, 1)"
  id="svg_1"/>
 </g>
</svg>