<svg width="30" height="30">
 <g className="layer">
  <title>Layer 1</title>
  <rect fill="#ffffff" height="0" id="svg_1" stroke="#000000" width="0" x="53" y="19.5"/>
  <rect fill="#10a37e" height="29" id="svg_2" stroke="#10a37e" width="30" x="0" y="0.5"/>
  <g id="svg_13">
   <path d="m24.31,12.91c0.41,-0.75 0.63,-1.58 0.63,-2.44c0,-0.88 -0.24,-1.74 -0.68,-2.51c-1.32,-2.29 -4.17,-3.14 -6.51,-2.03c-0.21,-0.35 -0.47,-0.68 -0.76,-0.97c-0.95,-0.95 -2.21,-1.47 -3.55,-1.47c-2.63,0 -4.8,2.04 -5.01,4.63c-1.76,0.03 -3.39,0.99 -4.26,2.51c-1.32,2.29 -0.63,5.18 1.51,6.65c-0.41,0.75 -0.63,1.58 -0.63,2.44c0,0.88 0.24,1.74 0.68,2.51c0.93,1.62 2.63,2.51 4.36,2.51c0.72,0 1.46,-0.16 2.15,-0.49c0.21,0.35 0.47,0.68 0.75,0.96c0.95,0.95 2.21,1.47 3.55,1.47c2.63,0 4.8,-2.04 5.01,-4.63c1.76,-0.03 3.39,-0.99 4.26,-2.51c1.32,-2.29 0.63,-5.18 -1.51,-6.65l0,0l0,0l0,0.01l-0.01,0l0.01,0.01l0.01,0zm-0.71,-4.56c0.37,0.65 0.57,1.39 0.57,2.13c0,0.72 -0.18,1.41 -0.52,2.03l-5.37,-3.09c-0.12,-0.07 -0.26,-0.07 -0.39,0l-5.61,3.23l0.01,-2.68l5.49,-3.17c0.01,-0.01 0.01,-0.01 0.02,-0.01c2.03,-1.16 4.63,-0.47 5.8,1.56l0,0l0,-0.01l0.01,0l-0.01,-0.01l-0.01,0.01l0.01,0.01zm-5.89,8.32l-2.72,1.57l-2.72,-1.57l0.01,-3.13l2.72,-1.57l2.72,1.57l-0.01,3.13l0,0zm-8.52,-8.15c0.01,-2.34 1.91,-4.24 4.26,-4.24c1.14,0 2.21,0.45 3.01,1.25c0.24,0.24 0.45,0.5 0.62,0.79l-5.37,3.1c-0.12,0.07 -0.2,0.2 -0.2,0.33l-0.01,6.48l-2.31,-1.34l0,-6.36l0,-0.01l0.01,-0.01l-0.01,0.01zm-4.35,2.51c0.74,-1.28 2.1,-2.08 3.57,-2.12l0,6.19c0,0.14 0.07,0.26 0.2,0.33l5.6,3.24l-2.31,1.33l-5.47,-3.16c-0.01,-0.01 -0.02,-0.01 -0.03,-0.02c-2.03,-1.18 -2.72,-3.78 -1.55,-5.81l0,0l0,-0.01l0,0.01l-0.01,0.01l0,0.01zm1.55,10.83c-0.37,-0.65 -0.57,-1.39 -0.57,-2.13c0,-0.72 0.18,-1.41 0.52,-2.03l5.37,3.09c0.06,0.03 0.13,0.06 0.2,0.06c0.07,0 0.13,-0.01 0.2,-0.06l5.61,-3.23l-0.01,2.68l-5.49,3.17c-0.01,0.01 -0.01,0.01 -0.02,0.01c-2.03,1.16 -4.63,0.47 -5.8,-1.56l0,0l0.01,0.01l-0.01,0l0.01,0.01l0.01,-0.01l-0.03,-0.01zm14.4,-0.17c-0.01,2.34 -1.91,4.24 -4.26,4.24c-1.14,0 -2.21,-0.45 -3.01,-1.25c-0.24,-0.24 -0.45,-0.5 -0.62,-0.79l5.37,-3.1c0.12,-0.07 0.2,-0.2 0.2,-0.33l0.01,-6.48l2.31,1.34l0,6.36l0,0l0,-0.01l0,0.01l-0.01,0.01l0.01,0.01l0,-0.01zm4.35,-2.51c-0.74,1.28 -2.1,2.08 -3.57,2.12l0,-6.19c0,-0.14 -0.07,-0.26 -0.2,-0.33l-5.6,-3.24l2.31,-1.33l5.47,3.16c0.01,0.01 0.02,0.01 0.03,0.02c2.03,1.18 2.72,3.78 1.55,5.81l0,0l0,0l-0.01,0.01l0.01,-0.01l0.01,-0.01l0,-0.01z" fill="#ffffff" id="svg_14"/>
  </g>
 </g>
</svg>