<svg width="18" height="18">
 <g className="layer">
  <title>Layer 1</title>
 <path d="m350.02 134.88c-97.895 0.003907-188.23 52.852-236.22 138.17h0.003906c-2.3984 4.2578-2.3984 9.4609-0.007813 13.723 47.945 85.391 138.29 138.3 236.22 138.34v-0.003906h0.015625c97.895-0.035157 188.22-52.914 236.18-138.26 2.3945-4.2578 2.3945-9.4609 0-13.719-47.961-85.344-138.29-138.21-236.18-138.26h-0.011719zm-0.003906 28c85.18 0.03125 163.86 44.59 207.77 117.12-43.918 72.523-122.59 117.07-207.76 117.11-85.207-0.03125-163.91-44.621-207.82-117.19 43.945-72.5 122.63-117.04 207.8-117.04zm-0.011719 32.238c-46.711 0-84.879 38.168-84.879 84.879 0 46.707 38.168 84.875 84.879 84.875 46.707 0 84.875-38.168 84.875-84.875 0-46.711-38.168-84.879-84.875-84.879zm0 28c31.574 0 56.871 25.297 56.871 56.875 0 31.574-25.297 56.871-56.871 56.871-31.578 0-56.875-25.297-56.875-56.871 0-31.578 25.297-56.875 56.875-56.875z" fill-rule="evenodd"/>
</g>
</svg>
