<svg width="20" height="20">
 <g class="layer">
  <title>Layer 1</title>
  <path clip-rule="evenodd" d="m2,5.42c0,-1.34 1,-2.42 2.25,-2.42l10.5,0c1.25,0 2.25,1.08 2.25,2.42l0,11.28c0,0.3 -0.15,0.57 -0.4,0.71c-0.24,0.14 -0.54,0.13 -0.77,-0.04l-3.19,-2.28l-8.4,0c-1.25,0 -2.25,-1.08 -2.25,-2.42l0,-7.25zm2.25,-0.81c-0.41,0 -0.75,0.36 -0.75,0.81l0,7.25c0,0.44 0.34,0.81 0.75,0.81l8.63,0c0.15,0 0.29,0.05 0.41,0.14l2.21,1.58l0,-9.77c0,-0.44 -0.34,-0.81 -0.75,-0.81l-10.5,0z" fill="#ffffff" fill-rule="evenodd" id="svg_1"/>
 </g>
</svg>